<svg version="1.1" id="Layer_1" xmlns="http://www.w3.org/2000/svg" xmlns:xlink="http://www.w3.org/1999/xlink" x="0px" y="0px"
	 width="100%" viewBox="0 0 300 300" enable-background="new 0 0 300 300" xml:space="preserve">
<path fill="#000000" opacity="1.000000" stroke="none" 
	d="
M170.000000,301.000000 
	C113.333344,301.000000 57.166687,301.000000 1.000023,301.000000 
	C1.000015,201.000031 1.000015,101.000053 1.000008,1.000063 
	C100.999947,1.000042 200.999893,1.000042 300.999878,1.000021 
	C300.999939,100.999939 300.999939,200.999878 300.999969,300.999908 
	C257.500000,301.000000 214.000000,301.000000 170.000000,301.000000 
M24.065445,84.944855 
	C24.055237,93.914391 24.026878,102.883942 24.038017,111.853447 
	C24.082365,147.562988 24.139025,183.272522 24.061865,219.745834 
	C24.419914,221.484100 24.777964,223.222382 25.287565,225.630219 
	C28.428972,228.489578 31.764397,230.873932 35.668285,232.827454 
	C42.613190,236.302689 49.074936,240.745880 55.725986,244.805145 
	C60.937622,247.985931 66.043587,251.350616 71.351379,254.360489 
	C79.028854,258.714142 86.860893,262.794373 94.599129,267.041962 
	C100.307716,270.175476 106.050125,273.259033 111.636734,276.600159 
	C119.333603,281.203339 126.955399,285.938629 134.503403,290.782410 
	C142.889130,296.163788 151.340012,298.866455 160.797653,293.224884 
	C164.679749,290.909149 168.803940,289.175934 172.640182,286.554443 
	C179.759430,281.689514 187.819321,278.199646 195.494919,274.151245 
	C197.590836,273.045776 199.815506,272.149841 201.800522,270.876312 
	C205.178055,268.709381 208.275406,266.078949 211.749863,264.098206 
	C214.582565,262.483368 218.045502,261.930817 220.782410,260.200775 
	C225.572525,257.172882 229.603622,252.530090 234.721191,250.543961 
	C240.533798,248.288071 245.239090,244.677643 250.374695,241.558990 
	C255.621521,238.372757 260.675873,234.746872 266.224274,232.209427 
	C274.029144,228.640060 277.994904,223.547516 277.996948,215.026428 
	C278.007080,172.405060 278.020874,129.783676 277.950134,87.162422 
	C277.946106,84.736931 277.203796,82.312668 276.941589,79.142448 
	C276.845642,74.666061 273.669708,72.751060 270.240143,70.992310 
	C266.918823,69.289062 263.543335,67.657738 260.372620,65.701492 
	C253.656372,61.557766 247.108490,57.140224 240.372253,53.030544 
	C238.871979,52.115242 236.669235,52.360161 235.153992,51.458851 
	C231.249313,49.136230 227.570923,46.436512 223.760437,43.951344 
	C219.128357,40.930336 214.505219,37.889652 209.778564,35.021706 
	C206.784149,33.204800 203.664795,31.565153 200.488419,30.089348 
	C198.994736,29.395355 196.997559,29.661921 195.635864,28.828068 
	C189.449127,25.039511 183.408340,21.012676 177.312714,17.075182 
	C175.968735,16.207029 174.685364,15.206803 173.252396,14.522069 
	C169.521057,12.739085 164.902252,11.896507 162.216156,9.140282 
	C160.160446,7.030894 157.867233,6.046802 155.973846,6.256240 
	C150.490387,6.862796 144.489044,3.081282 139.509583,7.966474 
	C138.868637,8.595283 138.455750,9.549719 137.718735,9.972185 
	C133.240448,12.539231 128.933517,15.216954 123.895462,16.979454 
	C119.612389,18.477837 116.460655,22.546024 111.594780,24.235537 
	C106.395737,26.040728 101.762184,29.844744 97.310806,33.324989 
	C93.170273,36.562202 88.023796,37.601315 83.953270,41.572109 
	C78.936935,46.465530 71.745590,49.136021 65.450073,52.688980 
	C65.173752,52.844925 64.457924,52.222122 64.472733,51.936710 
	C64.515396,51.732437 64.558052,51.528168 64.600716,51.323895 
	C64.413857,51.567734 64.226997,51.811573 63.280979,51.997536 
	C61.949017,53.208164 60.788177,54.740112 59.248241,55.560207 
	C56.352043,57.102573 53.054676,57.930737 50.258377,59.611858 
	C46.630920,61.792671 43.561783,64.957863 39.839409,66.913330 
	C32.476795,70.781120 24.772089,74.055191 24.065445,84.944855 
M278.996216,156.500000 
	C278.996216,176.917557 278.996216,197.335098 278.996216,217.752655 
	C279.224518,217.751160 279.452850,217.749649 279.681152,217.748154 
	C279.681152,173.396637 279.681152,129.045120 279.681152,84.693611 
	C279.452850,84.693253 279.224518,84.692902 278.996216,84.692543 
	C278.996216,108.295029 278.996216,131.897522 278.996216,156.500000 
M22.999977,120.500000 
	C22.999977,109.391548 22.999977,98.283096 22.999977,87.174644 
	C22.776499,87.179260 22.553022,87.183884 22.329544,87.188507 
	C22.329544,130.063782 22.329544,172.939072 22.329544,215.814346 
	C22.553022,215.814209 22.776499,215.814087 22.999977,215.813950 
	C22.999977,184.375961 22.999977,152.937988 22.999977,120.500000 
z"/>
<path fill="#68217A" opacity="1.000000" stroke="none" 
	d="
M276.805084,79.887833 
	C277.203796,82.312668 277.946106,84.736931 277.950134,87.162422 
	C278.020874,129.783676 278.007080,172.405060 277.996948,215.026428 
	C277.994904,223.547516 274.029144,228.640060 266.224274,232.209427 
	C260.675873,234.746872 255.621521,238.372757 250.374695,241.558990 
	C245.239090,244.677643 240.533798,248.288071 234.721191,250.543961 
	C229.603622,252.530090 225.572525,257.172882 220.782410,260.200775 
	C218.045502,261.930817 214.582565,262.483368 211.749863,264.098206 
	C208.275406,266.078949 205.178055,268.709381 201.800522,270.876312 
	C199.815506,272.149841 197.590836,273.045776 195.494919,274.151245 
	C187.819321,278.199646 179.759430,281.689514 172.640182,286.554443 
	C168.803940,289.175934 164.679749,290.909149 160.797653,293.224884 
	C151.340012,298.866455 142.889130,296.163788 134.503403,290.782410 
	C126.955399,285.938629 119.333603,281.203339 111.636734,276.600159 
	C106.050125,273.259033 100.307716,270.175476 94.599129,267.041962 
	C86.860893,262.794373 79.028854,258.714142 71.351379,254.360489 
	C66.043587,251.350616 60.937622,247.985931 55.725986,244.805145 
	C49.074936,240.745880 42.613190,236.302689 35.668285,232.827454 
	C31.764397,230.873932 28.428972,228.489578 25.515678,225.153870 
	C39.170414,216.812820 52.617882,208.983246 65.996582,201.037872 
	C67.620621,200.073395 68.874222,198.485138 70.564102,197.431763 
	C77.891579,208.939774 86.524757,218.710907 97.395241,226.509827 
	C119.385384,242.286453 144.321976,247.198837 170.086746,242.179886 
	C189.902420,238.319839 207.405380,227.729691 220.738312,211.723083 
	C224.503464,207.202927 227.812607,202.302948 231.520752,197.322174 
	C220.860992,191.050186 211.027039,185.264084 201.234665,179.502441 
	C198.608154,182.923080 196.514832,186.154770 193.931122,188.929886 
	C180.129166,203.754333 163.450760,209.815414 143.014664,207.194061 
	C124.489967,204.817917 111.325714,195.549393 102.191925,179.880905 
	C126.552849,165.795242 150.621964,151.912354 174.628693,137.922440 
	C183.229736,132.910187 191.680222,127.639565 200.535522,122.537384 
	C210.842133,117.000633 220.812653,111.413353 231.087830,105.677376 
	C245.113922,97.405655 258.821564,89.259041 272.580322,81.199722 
	C273.819519,80.473846 275.389008,80.311752 276.805084,79.887833 
M220.481415,164.968887 
	C220.609039,165.617569 220.637024,166.792587 220.878784,166.838348 
	C227.838486,168.155975 224.248962,172.949997 224.109131,176.560043 
	C224.055328,177.948639 223.795807,179.329269 223.619110,180.804718 
	C227.611267,180.804718 231.059616,180.804718 234.694321,180.804718 
	C235.712296,176.145996 236.694122,171.652664 237.676773,167.155640 
	C240.641449,167.155640 243.260254,167.155640 246.158875,167.155640 
	C245.296280,171.770981 244.480850,176.133942 243.611160,180.787201 
	C247.585220,180.787201 251.190765,180.787201 255.039917,180.787201 
	C256.139771,176.198776 257.235077,171.629211 258.124756,167.917480 
	C262.271027,167.523315 265.878418,167.180374 269.620178,166.824677 
	C269.620178,163.074722 269.620178,159.673172 269.620178,155.875214 
	C266.382874,155.875214 263.446320,155.875214 260.465607,155.875214 
	C261.562866,147.001358 261.562866,147.001358 269.598938,145.279373 
	C269.598938,141.879715 269.598938,138.479019 269.598938,135.131287 
	C267.852203,134.843918 266.431915,134.610275 264.552460,134.301086 
	C265.241852,130.631393 266.018585,127.244293 266.451263,123.813782 
	C266.616699,122.502449 266.472809,120.537231 265.646667,119.825340 
	C262.564941,117.169785 255.922958,119.872200 255.043671,123.912010 
	C254.795990,125.050003 254.492920,126.176453 254.264862,127.318100 
	C252.824432,134.528397 252.695648,134.620407 244.705399,133.440216 
	C245.163284,130.530792 245.601639,127.617615 246.085724,124.712059 
	C246.444534,122.558456 247.988419,119.410789 244.246826,119.474236 
	C241.043198,119.528564 236.164825,116.617203 234.886002,122.743881 
	C234.045197,126.772072 233.211197,130.801682 232.288345,135.243805 
	C228.272293,135.243805 224.539474,135.243805 220.899780,135.243805 
	C220.899780,139.125717 220.899780,142.493011 220.899780,146.147400 
	C224.126373,146.147400 226.929352,146.147400 230.190582,146.147400 
	C229.508011,149.555359 228.901382,152.584091 228.283966,155.666779 
	C225.551132,155.845978 223.160507,156.002731 220.469452,156.179184 
	C220.469452,159.139618 220.469452,161.618439 220.481415,164.968887 
z"/>
<path fill="#9B4F96" opacity="1.000000" stroke="none" 
	d="
M276.873352,79.515137 
	C275.389008,80.311752 273.819519,80.473846 272.580322,81.199722 
	C258.821564,89.259041 245.113922,97.405655 231.130341,105.330292 
	C230.307938,103.952988 229.858612,102.704712 229.171234,101.605286 
	C208.955582,69.272133 171.016205,52.905655 133.064697,60.119247 
	C87.169136,68.842796 54.458492,112.421120 58.696522,158.790161 
	C59.946369,172.464981 64.368553,185.011902 70.299507,197.185989 
	C68.874222,198.485138 67.620621,200.073395 65.996582,201.037872 
	C52.617882,208.983246 39.170414,216.812820 25.439903,224.819077 
	C24.777964,223.222382 24.419914,221.484100 24.447784,219.165894 
	C25.222000,217.036682 25.947151,215.487900 25.949457,213.938049 
	C26.011330,172.392242 26.021112,130.846283 25.922478,89.300606 
	C25.918293,87.537979 24.792013,85.778030 24.188467,84.016830 
	C24.772089,74.055191 32.476795,70.781120 39.839409,66.913330 
	C43.561783,64.957863 46.630920,61.792671 50.258377,59.611858 
	C53.054676,57.930737 56.352043,57.102573 59.248241,55.560207 
	C60.788177,54.740112 61.949017,53.208164 63.638496,52.001877 
	C63.996014,52.006214 63.946819,51.962074 63.946819,51.962074 
	C64.457924,52.222122 65.173752,52.844925 65.450073,52.688980 
	C71.745590,49.136021 78.936935,46.465530 83.953270,41.572109 
	C88.023796,37.601315 93.170273,36.562202 97.310806,33.324989 
	C101.762184,29.844744 106.395737,26.040728 111.594780,24.235537 
	C116.460655,22.546024 119.612389,18.477837 123.895462,16.979454 
	C128.933517,15.216954 133.240448,12.539231 137.718735,9.972185 
	C138.455750,9.549719 138.868637,8.595283 139.509583,7.966474 
	C144.489044,3.081282 150.490387,6.862796 155.973846,6.256240 
	C157.867233,6.046802 160.160446,7.030894 162.216156,9.140282 
	C164.902252,11.896507 169.521057,12.739085 173.252396,14.522069 
	C174.685364,15.206803 175.968735,16.207029 177.312714,17.075182 
	C183.408340,21.012676 189.449127,25.039511 195.635864,28.828068 
	C196.997559,29.661921 198.994736,29.395355 200.488419,30.089348 
	C203.664795,31.565153 206.784149,33.204800 209.778564,35.021706 
	C214.505219,37.889652 219.128357,40.930336 223.760437,43.951344 
	C227.570923,46.436512 231.249313,49.136230 235.153992,51.458851 
	C236.669235,52.360161 238.871979,52.115242 240.372253,53.030544 
	C247.108490,57.140224 253.656372,61.557766 260.372620,65.701492 
	C263.543335,67.657738 266.918823,69.289062 270.240143,70.992310 
	C273.669708,72.751060 276.845642,74.666061 276.873352,79.515137 
z"/>
<path fill="#A755A2" opacity="1.000000" stroke="none" 
	d="
M24.126957,84.480843 
	C24.792013,85.778030 25.918293,87.537979 25.922478,89.300606 
	C26.021112,130.846283 26.011330,172.392242 25.949457,213.938049 
	C25.947151,215.487900 25.222000,217.036682 24.512415,218.783997 
	C24.139025,183.272522 24.082365,147.562988 24.038017,111.853447 
	C24.026878,102.883942 24.055237,93.914391 24.126957,84.480843 
z"/>
<path fill="#5600A8" opacity="1.000000" stroke="none" 
	d="
M278.996216,156.000000 
	C278.996216,131.897522 278.996216,108.295029 278.996216,84.692543 
	C279.224518,84.692902 279.452850,84.693253 279.681152,84.693611 
	C279.681152,129.045120 279.681152,173.396637 279.681152,217.748154 
	C279.452850,217.749649 279.224518,217.751160 278.996216,217.752655 
	C278.996216,197.335098 278.996216,176.917557 278.996216,156.000000 
z"/>
<path fill="#996699" opacity="1.000000" stroke="none" 
	d="
M22.999977,121.000000 
	C22.999977,152.937988 22.999977,184.375961 22.999977,215.813950 
	C22.776499,215.814087 22.553022,215.814209 22.329544,215.814346 
	C22.329544,172.939072 22.329544,130.063782 22.329544,87.188507 
	C22.553022,87.183884 22.776499,87.179260 22.999977,87.174644 
	C22.999977,98.283096 22.999977,109.391548 22.999977,121.000000 
z"/>
<path fill="#9B4F96" opacity="1.000000" stroke="none" 
	d="
M64.018082,52.030815 
	C64.226997,51.811573 64.413857,51.567734 64.600716,51.323895 
	C64.558052,51.528168 64.515396,51.732437 64.209778,51.949394 
	C63.946819,51.962074 63.996014,52.006214 64.018082,52.030815 
z"/>
<path fill="#FEFDFE" opacity="1.000000" stroke="none" 
	d="
M70.564102,197.431763 
	C64.368553,185.011902 59.946369,172.464981 58.696522,158.790161 
	C54.458492,112.421120 87.169136,68.842796 133.064697,60.119247 
	C171.016205,52.905655 208.955582,69.272133 229.171234,101.605286 
	C229.858612,102.704712 230.307938,103.952988 230.825684,105.478989 
	C220.812653,111.413353 210.842133,117.000633 200.501526,122.205788 
	C185.839157,98.050079 161.781357,89.936958 138.345535,95.224518 
	C96.867310,104.582787 83.111343,150.638580 101.875488,180.041428 
	C111.325714,195.549393 124.489967,204.817917 143.014664,207.194061 
	C163.450760,209.815414 180.129166,203.754333 193.931122,188.929886 
	C196.514832,186.154770 198.608154,182.923080 201.234665,179.502441 
	C211.027039,185.264084 220.860992,191.050186 231.520752,197.322174 
	C227.812607,202.302948 224.503464,207.202927 220.738312,211.723083 
	C207.405380,227.729691 189.902420,238.319839 170.086746,242.179886 
	C144.321976,247.198837 119.385384,242.286453 97.395241,226.509827 
	C86.524757,218.710907 77.891579,208.939774 70.564102,197.431763 
z"/>
<path fill="#9B4F96" opacity="1.000000" stroke="none" 
	d="
M102.191925,179.880905 
	C83.111343,150.638580 96.867310,104.582787 138.345535,95.224518 
	C161.781357,89.936958 185.839157,98.050079 200.165436,122.155258 
	C191.680222,127.639565 183.229736,132.910187 174.628693,137.922440 
	C150.621964,151.912354 126.552849,165.795242 102.191925,179.880905 
z"/>
<path fill="#F9F8FA" opacity="1.000000" stroke="none" 
	d="
M220.475433,164.533066 
	C220.469452,161.618439 220.469452,159.139618 220.469452,156.179184 
	C223.160507,156.002731 225.551132,155.845978 228.283966,155.666779 
	C228.901382,152.584091 229.508011,149.555359 230.190582,146.147400 
	C226.929352,146.147400 224.126373,146.147400 220.899780,146.147400 
	C220.899780,142.493011 220.899780,139.125717 220.899780,135.243805 
	C224.539474,135.243805 228.272293,135.243805 232.288345,135.243805 
	C233.211197,130.801682 234.045197,126.772072 234.886002,122.743881 
	C236.164825,116.617203 241.043198,119.528564 244.246826,119.474236 
	C247.988419,119.410789 246.444534,122.558456 246.085724,124.712059 
	C245.601639,127.617615 245.163284,130.530792 244.705399,133.440216 
	C252.695648,134.620407 252.824432,134.528397 254.264862,127.318100 
	C254.492920,126.176453 254.795990,125.050003 255.043671,123.912010 
	C255.922958,119.872200 262.564941,117.169785 265.646667,119.825340 
	C266.472809,120.537231 266.616699,122.502449 266.451263,123.813782 
	C266.018585,127.244293 265.241852,130.631393 264.552460,134.301086 
	C266.431915,134.610275 267.852203,134.843918 269.598938,135.131287 
	C269.598938,138.479019 269.598938,141.879715 269.598938,145.279373 
	C261.562866,147.001358 261.562866,147.001358 260.465607,155.875214 
	C263.446320,155.875214 266.382874,155.875214 269.620178,155.875214 
	C269.620178,159.673172 269.620178,163.074722 269.620178,166.824677 
	C265.878418,167.180374 262.271027,167.523315 258.124756,167.917480 
	C257.235077,171.629211 256.139771,176.198776 255.039917,180.787201 
	C251.190765,180.787201 247.585220,180.787201 243.611160,180.787201 
	C244.480850,176.133942 245.296280,171.770981 246.158875,167.155640 
	C243.260254,167.155640 240.641449,167.155640 237.676773,167.155640 
	C236.694122,171.652664 235.712296,176.145996 234.694321,180.804718 
	C231.059616,180.804718 227.611267,180.804718 223.619110,180.804718 
	C223.795807,179.329269 224.055328,177.948639 224.109131,176.560043 
	C224.248962,172.949997 227.838486,168.155975 220.878784,166.838348 
	C220.637024,166.792587 220.609039,165.617569 220.475433,164.533066 
M250.197845,147.407928 
	C247.565948,146.796555 244.934052,146.185181 241.936813,145.488953 
	C241.117279,149.423355 240.486130,152.453354 239.851807,155.498550 
	C247.811630,156.829483 248.311646,156.459549 250.197845,147.407928 
z"/>
<path fill="#703081" opacity="1.000000" stroke="none" 
	d="
M250.143158,147.843719 
	C248.311646,156.459549 247.811630,156.829483 239.851807,155.498550 
	C240.486130,152.453354 241.117279,149.423355 241.936813,145.488953 
	C244.934052,146.185181 247.565948,146.796555 250.143158,147.843719 
z"/>
</svg>