<?xml version="1.0" encoding="utf-8"?>
<!-- Generator: Adobe Illustrator 27.3.1, SVG Export Plug-In . SVG Version: 6.00 Build 0)  -->
<svg version="1.1" id="Layer_1" xmlns="http://www.w3.org/2000/svg" xmlns:xlink="http://www.w3.org/1999/xlink" x="0px" y="0px"
	 viewBox="0 0 336 336" style="enable-background:new 0 0 336 336;" xml:space="preserve">
<style type="text/css">
	.st0{fill:#424242;}
</style>
<path class="st0" d="M180.2,67.2l49.7,28.7c1.8,1,1.9,3.8,0,4.8l-59.1,34.1c-1.8,1-3.9,1-5.6,0l-59.1-34.1c-1.8-1-1.9-3.8,0-4.8
	l49.7-28.7V11L29,84.2v146.5V230v0.7l48.6-28.1v-57.4c0-2,2.4-3.5,4.2-2.4l59.1,34.1c1.8,1,2.8,2.9,2.8,4.8V250c0,2-2.4,3.5-4.2,2.4
	l-49.7-28.7l-48.6,28.1L168,325l126.8-73.2l-48.6-28.1l-49.7,28.7c-1.8,1.1-4.2-0.3-4.2-2.4v-68.2c0-2,1.1-3.9,2.8-4.8l59.1-34.1
	c1.8-1.1,4.2,0.3,4.2,2.4v57.4l48.6,28.1V84.2L180.2,11V67.2z"/>
</svg>
